<svg id="visual" viewBox="0 0 1920 1080" width="1920" height="1080" xmlns="http://www.w3.org/2000/svg" xmlns:xlink="http://www.w3.org/1999/xlink" version="1.1"><rect x="0" y="0" width="1920" height="1080" fill="#002233"></rect><path d="M319 0L354.8 22.5C390.7 45 462.3 90 458.2 135C454 180 374 225 333.7 270C293.3 315 292.7 360 340.5 405C388.3 450 484.7 495 520.2 540C555.7 585 530.3 630 506.7 675C483 720 461 765 485.8 810C510.7 855 582.3 900 554.3 945C526.3 990 398.7 1035 334.8 1057.5L271 1080L0 1080L0 1057.5C0 1035 0 990 0 945C0 900 0 855 0 810C0 765 0 720 0 675C0 630 0 585 0 540C0 495 0 450 0 405C0 360 0 315 0 270C0 225 0 180 0 135C0 90 0 45 0 22.5L0 0Z" fill="#0066FF" stroke-linecap="round" stroke-linejoin="miter"></path></svg>