<svg id="visual" viewBox="0 0 1920 1080" width="1920" height="1080" xmlns="http://www.w3.org/2000/svg" xmlns:xlink="http://www.w3.org/1999/xlink" version="1.1"><rect x="0" y="0" width="1920" height="1080" fill="#140021"></rect><path d="M994 0L692 0L692 154L809 154L809 309L889 309L889 463L824 463L824 617L950 617L950 771L931 771L931 926L1039 926L1039 1080L0 1080L0 926L0 926L0 771L0 771L0 617L0 617L0 463L0 463L0 309L0 309L0 154L0 154L0 0L0 0Z" fill="#001122"></path><path d="M442 0L518 0L518 154L507 154L507 309L620 309L620 463L767 463L767 617L695 617L695 771L544 771L544 926L595 926L595 1080L0 1080L0 926L0 926L0 771L0 771L0 617L0 617L0 463L0 463L0 309L0 309L0 154L0 154L0 0L0 0Z" fill="#003e8c"></path><path d="M192 0L206 0L206 154L290 154L290 309L230 309L230 463L497 463L497 617L458 617L458 771L457 771L457 926L361 926L361 1080L0 1080L0 926L0 926L0 771L0 771L0 617L0 617L0 463L0 463L0 309L0 309L0 154L0 154L0 0L0 0Z" fill="#0066ff"></path></svg>