<svg id="visual" viewBox="0 0 1920 1080" width="1920" height="1080" xmlns="http://www.w3.org/2000/svg" xmlns:xlink="http://www.w3.org/1999/xlink" version="1.1"><rect x="0" y="0" width="1920" height="1080" fill="#002233"></rect><path d="M0 294L32 289.2C64 284.3 128 274.7 192 257.7C256 240.7 320 216.3 384 204.3C448 192.3 512 192.7 576 210.8C640 229 704 265 768 272.7C832 280.3 896 259.7 960 228.5C1024 197.3 1088 155.7 1152 160.5C1216 165.3 1280 216.7 1344 213.5C1408 210.3 1472 152.7 1536 139.5C1600 126.3 1664 157.7 1728 218C1792 278.3 1856 367.7 1888 412.3L1920 457L1920 0L1888 0C1856 0 1792 0 1728 0C1664 0 1600 0 1536 0C1472 0 1408 0 1344 0C1280 0 1216 0 1152 0C1088 0 1024 0 960 0C896 0 832 0 768 0C704 0 640 0 576 0C512 0 448 0 384 0C320 0 256 0 192 0C128 0 64 0 32 0L0 0Z" fill="#0066FF" stroke-linecap="round" stroke-linejoin="miter"></path></svg>