<svg xmlns="http://www.w3.org/2000/svg" version="1.1" xmlns:xlink="http://www.w3.org/1999/xlink" xmlns:svgjs="http://svgjs.dev/svgjs" width="1440" height="560" preserveAspectRatio="none" viewBox="0 0 1440 560"><g mask="url(&quot;#SvgjsMask1000&quot;)" fill="none"><rect width="1440" height="560" x="0" y="0" fill="#0e2a47"></rect><path d="M0,381.123C71.797,388.863,146.025,359.538,200.874,312.567C252.81,268.09,272.818,198.673,290.258,132.556C305.439,75.002,296.006,17.162,294.489,-42.341C292.743,-110.82,326.604,-192.384,280.677,-243.208C234.582,-294.217,147.656,-258.844,81.605,-277.922C15.986,-296.875,-38.125,-372.227,-104.039,-354.326C-169.735,-336.484,-174.474,-240.651,-224.728,-194.728C-285.182,-139.485,-400.552,-139.276,-424.928,-61.095C-448.438,14.306,-380.251,88.836,-332.836,152.001C-292.307,205.994,-230.454,233.782,-174.844,272.063C-117.094,311.817,-69.706,373.608,0,381.123" fill="#0b2239"></path><path d="M1440 1171.8719999999998C1552.305 1163.414 1634.29 1070.196 1724.879 1003.281 1809.415 940.837 1899.045 884.62 1951.874 793.765 2008.112 697.046 2058.256 583.652 2032.132 474.86400000000003 2006.437 367.861 1885.616 319.344 1817.245 233.11599999999999 1744.597 141.495 1729.399-10.763000000000034 1618.261-47.10000000000002 1507.557-83.29499999999996 1402.417 20.013000000000034 1293.762 61.95999999999998 1195.335 99.95800000000003 1087.9180000000001 116.207 1010.256 187.62400000000002 927.373 263.843 851.437 362.05 845.175 474.477 839.028 584.846 929.152 671.819 977.7570000000001 771.0989999999999 1024.8029999999999 867.1949999999999 1045.301 978.284 1126.141 1048.374 1212.842 1123.545 1325.573 1180.49 1440 1171.8719999999998" fill="#113255"></path></g><defs><mask id="SvgjsMask1000"><rect width="1440" height="560" fill="#ffffff"></rect></mask></defs></svg>