<svg xmlns="http://www.w3.org/2000/svg" version="1.1" xmlns:xlink="http://www.w3.org/1999/xlink" xmlns:svgjs="http://svgjs.dev/svgjs" width="1440" height="560" preserveAspectRatio="none" viewBox="0 0 1440 560"><g mask="url(&quot;#SvgjsMask1000&quot;)" fill="none"><rect width="1440" height="560" x="0" y="0" fill="#0e2a47"></rect><path d="M14.88 193.4L79.83 230.9L79.83 305.9L14.88 343.4L-50.07 305.9L-50.07 230.9zM79.83 305.9L144.79 343.4L144.79 418.4L79.83 455.9L14.88 418.4L14.88 343.4zM14.88 418.4L79.83 455.9L79.83 530.9L14.88 568.4L-50.07 530.9L-50.07 455.9zM209.74 305.9L274.69 343.4L274.69 418.4L209.74 455.9L144.79 418.4L144.79 343.4zM209.74 530.9L274.69 568.4L274.69 643.4L209.74 680.9L144.79 643.4L144.79 568.4zM274.69 193.4L339.65 230.9L339.65 305.9L274.69 343.4L209.74 305.9L209.74 230.9zM339.65 305.9L404.6 343.4L404.6 418.4L339.65 455.9L274.69 418.4L274.69 343.4zM339.65 530.9L404.6 568.4L404.6 643.4L339.65 680.9L274.69 643.4L274.69 568.4zM404.6 193.4L469.56 230.9L469.56 305.9L404.6 343.4L339.65 305.9L339.65 230.9zM469.56 305.9L534.51 343.4L534.51 418.4L469.56 455.9L404.6 418.4L404.6 343.4zM599.46 80.9L664.42 118.4L664.42 193.4L599.46 230.9L534.51 193.4L534.51 118.4zM534.51 418.4L599.46 455.9L599.46 530.9L534.51 568.4L469.56 530.9L469.56 455.9zM599.46 530.9L664.42 568.4L664.42 643.4L599.46 680.9L534.51 643.4L534.51 568.4zM664.42 -31.6L729.37 5.9L729.37 80.9L664.42 118.4L599.46 80.9L599.46 5.9zM664.42 418.4L729.37 455.9L729.37 530.9L664.42 568.4L599.46 530.9L599.46 455.9zM794.32 -31.6L859.28 5.9L859.28 80.9L794.32 118.4L729.37 80.9L729.37 5.9zM859.28 80.9L924.23 118.4L924.23 193.4L859.28 230.9L794.32 193.4L794.32 118.4zM859.28 305.9L924.23 343.4L924.23 418.4L859.28 455.9L794.32 418.4L794.32 343.4zM794.32 418.4L859.28 455.9L859.28 530.9L794.32 568.4L729.37 530.9L729.37 455.9zM859.28 530.9L924.23 568.4L924.23 643.4L859.28 680.9L794.32 643.4L794.32 568.4zM924.23 -31.6L989.19 5.9L989.19 80.9L924.23 118.4L859.28 80.9L859.28 5.9zM989.19 80.9L1054.14 118.4L1054.14 193.4L989.19 230.9L924.23 193.4L924.23 118.4zM924.23 193.4L989.19 230.9L989.19 305.9L924.23 343.4L859.28 305.9L859.28 230.9zM1054.14 -31.6L1119.09 5.9L1119.09 80.9L1054.14 118.4L989.19 80.9L989.19 5.9zM1119.09 80.9L1184.05 118.4L1184.05 193.4L1119.09 230.9L1054.14 193.4L1054.14 118.4zM1054.14 193.4L1119.09 230.9L1119.09 305.9L1054.14 343.4L989.19 305.9L989.19 230.9zM1119.09 305.9L1184.05 343.4L1184.05 418.4L1119.09 455.9L1054.14 418.4L1054.14 343.4zM1054.14 418.4L1119.09 455.9L1119.09 530.9L1054.14 568.4L989.19 530.9L989.19 455.9zM1119.09 530.9L1184.05 568.4L1184.05 643.4L1119.09 680.9L1054.14 643.4L1054.14 568.4zM1184.05 418.4L1249 455.9L1249 530.9L1184.05 568.4L1119.09 530.9L1119.09 455.9zM1313.96 -31.6L1378.91 5.9L1378.91 80.9L1313.96 118.4L1249 80.9L1249 5.9zM1378.91 305.9L1443.86 343.4L1443.86 418.4L1378.91 455.9L1313.96 418.4L1313.96 343.4zM1443.86 -31.6L1508.82 5.9L1508.82 80.9L1443.86 118.4L1378.91 80.9L1378.91 5.9zM1443.86 193.4L1508.82 230.9L1508.82 305.9L1443.86 343.4L1378.91 305.9L1378.91 230.9z" stroke="#03305d" stroke-width="2"></path><path d="M7.38 193.4 a7.5 7.5 0 1 0 15 0 a7.5 7.5 0 1 0 -15 0zM72.33 230.9 a7.5 7.5 0 1 0 15 0 a7.5 7.5 0 1 0 -15 0zM72.33 305.9 a7.5 7.5 0 1 0 15 0 a7.5 7.5 0 1 0 -15 0zM7.38 343.4 a7.5 7.5 0 1 0 15 0 a7.5 7.5 0 1 0 -15 0zM-57.57 305.9 a7.5 7.5 0 1 0 15 0 a7.5 7.5 0 1 0 -15 0zM-57.57 230.9 a7.5 7.5 0 1 0 15 0 a7.5 7.5 0 1 0 -15 0zM137.29 343.4 a7.5 7.5 0 1 0 15 0 a7.5 7.5 0 1 0 -15 0zM137.29 418.4 a7.5 7.5 0 1 0 15 0 a7.5 7.5 0 1 0 -15 0zM72.33 455.9 a7.5 7.5 0 1 0 15 0 a7.5 7.5 0 1 0 -15 0zM7.38 418.4 a7.5 7.5 0 1 0 15 0 a7.5 7.5 0 1 0 -15 0zM72.33 530.9 a7.5 7.5 0 1 0 15 0 a7.5 7.5 0 1 0 -15 0zM7.38 568.4 a7.5 7.5 0 1 0 15 0 a7.5 7.5 0 1 0 -15 0zM-57.57 530.9 a7.5 7.5 0 1 0 15 0 a7.5 7.5 0 1 0 -15 0zM-57.57 455.9 a7.5 7.5 0 1 0 15 0 a7.5 7.5 0 1 0 -15 0zM202.24 305.9 a7.5 7.5 0 1 0 15 0 a7.5 7.5 0 1 0 -15 0zM267.19 343.4 a7.5 7.5 0 1 0 15 0 a7.5 7.5 0 1 0 -15 0zM267.19 418.4 a7.5 7.5 0 1 0 15 0 a7.5 7.5 0 1 0 -15 0zM202.24 455.9 a7.5 7.5 0 1 0 15 0 a7.5 7.5 0 1 0 -15 0zM202.24 530.9 a7.5 7.5 0 1 0 15 0 a7.5 7.5 0 1 0 -15 0zM267.19 568.4 a7.5 7.5 0 1 0 15 0 a7.5 7.5 0 1 0 -15 0zM267.19 643.4 a7.5 7.5 0 1 0 15 0 a7.5 7.5 0 1 0 -15 0zM202.24 680.9 a7.5 7.5 0 1 0 15 0 a7.5 7.5 0 1 0 -15 0zM137.29 643.4 a7.5 7.5 0 1 0 15 0 a7.5 7.5 0 1 0 -15 0zM137.29 568.4 a7.5 7.5 0 1 0 15 0 a7.5 7.5 0 1 0 -15 0zM267.19 193.4 a7.5 7.5 0 1 0 15 0 a7.5 7.5 0 1 0 -15 0zM332.15 230.9 a7.5 7.5 0 1 0 15 0 a7.5 7.5 0 1 0 -15 0zM332.15 305.9 a7.5 7.5 0 1 0 15 0 a7.5 7.5 0 1 0 -15 0zM202.24 230.9 a7.5 7.5 0 1 0 15 0 a7.5 7.5 0 1 0 -15 0zM397.1 343.4 a7.5 7.5 0 1 0 15 0 a7.5 7.5 0 1 0 -15 0zM397.1 418.4 a7.5 7.5 0 1 0 15 0 a7.5 7.5 0 1 0 -15 0zM332.15 455.9 a7.5 7.5 0 1 0 15 0 a7.5 7.5 0 1 0 -15 0zM332.15 530.9 a7.5 7.5 0 1 0 15 0 a7.5 7.5 0 1 0 -15 0zM397.1 568.4 a7.5 7.5 0 1 0 15 0 a7.5 7.5 0 1 0 -15 0zM397.1 643.4 a7.5 7.5 0 1 0 15 0 a7.5 7.5 0 1 0 -15 0zM332.15 680.9 a7.5 7.5 0 1 0 15 0 a7.5 7.5 0 1 0 -15 0zM397.1 193.4 a7.5 7.5 0 1 0 15 0 a7.5 7.5 0 1 0 -15 0zM462.06 230.9 a7.5 7.5 0 1 0 15 0 a7.5 7.5 0 1 0 -15 0zM462.06 305.9 a7.5 7.5 0 1 0 15 0 a7.5 7.5 0 1 0 -15 0zM527.01 343.4 a7.5 7.5 0 1 0 15 0 a7.5 7.5 0 1 0 -15 0zM527.01 418.4 a7.5 7.5 0 1 0 15 0 a7.5 7.5 0 1 0 -15 0zM462.06 455.9 a7.5 7.5 0 1 0 15 0 a7.5 7.5 0 1 0 -15 0zM591.96 80.9 a7.5 7.5 0 1 0 15 0 a7.5 7.5 0 1 0 -15 0zM656.92 118.4 a7.5 7.5 0 1 0 15 0 a7.5 7.5 0 1 0 -15 0zM656.92 193.4 a7.5 7.5 0 1 0 15 0 a7.5 7.5 0 1 0 -15 0zM591.96 230.9 a7.5 7.5 0 1 0 15 0 a7.5 7.5 0 1 0 -15 0zM527.01 193.4 a7.5 7.5 0 1 0 15 0 a7.5 7.5 0 1 0 -15 0zM527.01 118.4 a7.5 7.5 0 1 0 15 0 a7.5 7.5 0 1 0 -15 0zM591.96 455.9 a7.5 7.5 0 1 0 15 0 a7.5 7.5 0 1 0 -15 0zM591.96 530.9 a7.5 7.5 0 1 0 15 0 a7.5 7.5 0 1 0 -15 0zM527.01 568.4 a7.5 7.5 0 1 0 15 0 a7.5 7.5 0 1 0 -15 0zM462.06 530.9 a7.5 7.5 0 1 0 15 0 a7.5 7.5 0 1 0 -15 0zM656.92 568.4 a7.5 7.5 0 1 0 15 0 a7.5 7.5 0 1 0 -15 0zM656.92 643.4 a7.5 7.5 0 1 0 15 0 a7.5 7.5 0 1 0 -15 0zM591.96 680.9 a7.5 7.5 0 1 0 15 0 a7.5 7.5 0 1 0 -15 0zM527.01 643.4 a7.5 7.5 0 1 0 15 0 a7.5 7.5 0 1 0 -15 0zM656.92 -31.6 a7.5 7.5 0 1 0 15 0 a7.5 7.5 0 1 0 -15 0zM721.87 5.9 a7.5 7.5 0 1 0 15 0 a7.5 7.5 0 1 0 -15 0zM721.87 80.9 a7.5 7.5 0 1 0 15 0 a7.5 7.5 0 1 0 -15 0zM591.96 5.9 a7.5 7.5 0 1 0 15 0 a7.5 7.5 0 1 0 -15 0zM656.92 418.4 a7.5 7.5 0 1 0 15 0 a7.5 7.5 0 1 0 -15 0zM721.87 455.9 a7.5 7.5 0 1 0 15 0 a7.5 7.5 0 1 0 -15 0zM721.87 530.9 a7.5 7.5 0 1 0 15 0 a7.5 7.5 0 1 0 -15 0zM786.82 -31.6 a7.5 7.5 0 1 0 15 0 a7.5 7.5 0 1 0 -15 0zM851.78 5.9 a7.5 7.5 0 1 0 15 0 a7.5 7.5 0 1 0 -15 0zM851.78 80.9 a7.5 7.5 0 1 0 15 0 a7.5 7.5 0 1 0 -15 0zM786.82 118.4 a7.5 7.5 0 1 0 15 0 a7.5 7.5 0 1 0 -15 0zM916.73 118.4 a7.5 7.5 0 1 0 15 0 a7.5 7.5 0 1 0 -15 0zM916.73 193.4 a7.5 7.5 0 1 0 15 0 a7.5 7.5 0 1 0 -15 0zM851.78 230.9 a7.5 7.5 0 1 0 15 0 a7.5 7.5 0 1 0 -15 0zM786.82 193.4 a7.5 7.5 0 1 0 15 0 a7.5 7.5 0 1 0 -15 0zM851.78 305.9 a7.5 7.5 0 1 0 15 0 a7.5 7.5 0 1 0 -15 0zM916.73 343.4 a7.5 7.5 0 1 0 15 0 a7.5 7.5 0 1 0 -15 0zM916.73 418.4 a7.5 7.5 0 1 0 15 0 a7.5 7.5 0 1 0 -15 0zM851.78 455.9 a7.5 7.5 0 1 0 15 0 a7.5 7.5 0 1 0 -15 0zM786.82 418.4 a7.5 7.5 0 1 0 15 0 a7.5 7.5 0 1 0 -15 0zM786.82 343.4 a7.5 7.5 0 1 0 15 0 a7.5 7.5 0 1 0 -15 0zM851.78 530.9 a7.5 7.5 0 1 0 15 0 a7.5 7.5 0 1 0 -15 0zM786.82 568.4 a7.5 7.5 0 1 0 15 0 a7.5 7.5 0 1 0 -15 0zM916.73 568.4 a7.5 7.5 0 1 0 15 0 a7.5 7.5 0 1 0 -15 0zM916.73 643.4 a7.5 7.5 0 1 0 15 0 a7.5 7.5 0 1 0 -15 0zM851.78 680.9 a7.5 7.5 0 1 0 15 0 a7.5 7.5 0 1 0 -15 0zM786.82 643.4 a7.5 7.5 0 1 0 15 0 a7.5 7.5 0 1 0 -15 0zM916.73 -31.6 a7.5 7.5 0 1 0 15 0 a7.5 7.5 0 1 0 -15 0zM981.69 5.9 a7.5 7.5 0 1 0 15 0 a7.5 7.5 0 1 0 -15 0zM981.69 80.9 a7.5 7.5 0 1 0 15 0 a7.5 7.5 0 1 0 -15 0zM1046.64 118.4 a7.5 7.5 0 1 0 15 0 a7.5 7.5 0 1 0 -15 0zM1046.64 193.4 a7.5 7.5 0 1 0 15 0 a7.5 7.5 0 1 0 -15 0zM981.69 230.9 a7.5 7.5 0 1 0 15 0 a7.5 7.5 0 1 0 -15 0zM981.69 305.9 a7.5 7.5 0 1 0 15 0 a7.5 7.5 0 1 0 -15 0zM1046.64 -31.6 a7.5 7.5 0 1 0 15 0 a7.5 7.5 0 1 0 -15 0zM1111.59 5.9 a7.5 7.5 0 1 0 15 0 a7.5 7.5 0 1 0 -15 0zM1111.59 80.9 a7.5 7.5 0 1 0 15 0 a7.5 7.5 0 1 0 -15 0zM1176.55 118.4 a7.5 7.5 0 1 0 15 0 a7.5 7.5 0 1 0 -15 0zM1176.55 193.4 a7.5 7.5 0 1 0 15 0 a7.5 7.5 0 1 0 -15 0zM1111.59 230.9 a7.5 7.5 0 1 0 15 0 a7.5 7.5 0 1 0 -15 0zM1111.59 305.9 a7.5 7.5 0 1 0 15 0 a7.5 7.5 0 1 0 -15 0zM1046.64 343.4 a7.5 7.5 0 1 0 15 0 a7.5 7.5 0 1 0 -15 0zM1176.55 343.4 a7.5 7.5 0 1 0 15 0 a7.5 7.5 0 1 0 -15 0zM1176.55 418.4 a7.5 7.5 0 1 0 15 0 a7.5 7.5 0 1 0 -15 0zM1111.59 455.9 a7.5 7.5 0 1 0 15 0 a7.5 7.5 0 1 0 -15 0zM1046.64 418.4 a7.5 7.5 0 1 0 15 0 a7.5 7.5 0 1 0 -15 0zM1111.59 530.9 a7.5 7.5 0 1 0 15 0 a7.5 7.5 0 1 0 -15 0zM1046.64 568.4 a7.5 7.5 0 1 0 15 0 a7.5 7.5 0 1 0 -15 0zM981.69 530.9 a7.5 7.5 0 1 0 15 0 a7.5 7.5 0 1 0 -15 0zM981.69 455.9 a7.5 7.5 0 1 0 15 0 a7.5 7.5 0 1 0 -15 0zM1176.55 568.4 a7.5 7.5 0 1 0 15 0 a7.5 7.5 0 1 0 -15 0zM1176.55 643.4 a7.5 7.5 0 1 0 15 0 a7.5 7.5 0 1 0 -15 0zM1111.59 680.9 a7.5 7.5 0 1 0 15 0 a7.5 7.5 0 1 0 -15 0zM1046.64 643.4 a7.5 7.5 0 1 0 15 0 a7.5 7.5 0 1 0 -15 0zM1241.5 455.9 a7.5 7.5 0 1 0 15 0 a7.5 7.5 0 1 0 -15 0zM1241.5 530.9 a7.5 7.5 0 1 0 15 0 a7.5 7.5 0 1 0 -15 0zM1306.46 -31.6 a7.5 7.5 0 1 0 15 0 a7.5 7.5 0 1 0 -15 0zM1371.41 5.9 a7.5 7.5 0 1 0 15 0 a7.5 7.5 0 1 0 -15 0zM1371.41 80.9 a7.5 7.5 0 1 0 15 0 a7.5 7.5 0 1 0 -15 0zM1306.46 118.4 a7.5 7.5 0 1 0 15 0 a7.5 7.5 0 1 0 -15 0zM1241.5 80.9 a7.5 7.5 0 1 0 15 0 a7.5 7.5 0 1 0 -15 0zM1241.5 5.9 a7.5 7.5 0 1 0 15 0 a7.5 7.5 0 1 0 -15 0zM1371.41 305.9 a7.5 7.5 0 1 0 15 0 a7.5 7.5 0 1 0 -15 0zM1436.36 343.4 a7.5 7.5 0 1 0 15 0 a7.5 7.5 0 1 0 -15 0zM1436.36 418.4 a7.5 7.5 0 1 0 15 0 a7.5 7.5 0 1 0 -15 0zM1371.41 455.9 a7.5 7.5 0 1 0 15 0 a7.5 7.5 0 1 0 -15 0zM1306.46 418.4 a7.5 7.5 0 1 0 15 0 a7.5 7.5 0 1 0 -15 0zM1306.46 343.4 a7.5 7.5 0 1 0 15 0 a7.5 7.5 0 1 0 -15 0zM1436.36 -31.6 a7.5 7.5 0 1 0 15 0 a7.5 7.5 0 1 0 -15 0zM1501.32 5.9 a7.5 7.5 0 1 0 15 0 a7.5 7.5 0 1 0 -15 0zM1501.32 80.9 a7.5 7.5 0 1 0 15 0 a7.5 7.5 0 1 0 -15 0zM1436.36 118.4 a7.5 7.5 0 1 0 15 0 a7.5 7.5 0 1 0 -15 0zM1436.36 193.4 a7.5 7.5 0 1 0 15 0 a7.5 7.5 0 1 0 -15 0zM1501.32 230.9 a7.5 7.5 0 1 0 15 0 a7.5 7.5 0 1 0 -15 0zM1501.32 305.9 a7.5 7.5 0 1 0 15 0 a7.5 7.5 0 1 0 -15 0zM1371.41 230.9 a7.5 7.5 0 1 0 15 0 a7.5 7.5 0 1 0 -15 0z" fill="#03305d"></path><path d="M44.57 148.69L87.87 173.69L87.87 223.69L44.57 248.69L1.27 223.69L1.27 173.69zM131.18 -1.31L174.48 23.69L174.48 73.69L131.18 98.69L87.87 73.69L87.87 23.69zM174.48 73.69L217.78 98.69L217.78 148.69L174.48 173.69L131.18 148.69L131.18 98.69zM131.18 298.69L174.48 323.69L174.48 373.69L131.18 398.69L87.87 373.69L87.87 323.69zM131.18 448.69L174.48 473.69L174.48 523.69L131.18 548.69L87.87 523.69L87.87 473.69zM261.08 373.69L304.38 398.69L304.38 448.69L261.08 473.69L217.78 448.69L217.78 398.69zM217.78 448.69L261.08 473.69L261.08 523.69L217.78 548.69L174.48 523.69L174.48 473.69zM304.38 -1.31L347.69 23.69L347.69 73.69L304.38 98.69L261.08 73.69L261.08 23.69zM434.29 73.69L477.6 98.69L477.6 148.69L434.29 173.69L390.99 148.69L390.99 98.69zM390.99 448.69L434.29 473.69L434.29 523.69L390.99 548.69L347.69 523.69L347.69 473.69zM434.29 523.69L477.6 548.69L477.6 598.69L434.29 623.69L390.99 598.69L390.99 548.69zM520.9 73.69L564.2 98.69L564.2 148.69L520.9 173.69L477.6 148.69L477.6 98.69zM477.6 148.69L520.9 173.69L520.9 223.69L477.6 248.69L434.29 223.69L434.29 173.69zM520.9 223.69L564.2 248.69L564.2 298.69L520.9 323.69L477.6 298.69L477.6 248.69zM477.6 448.69L520.9 473.69L520.9 523.69L477.6 548.69L434.29 523.69L434.29 473.69zM520.9 523.69L564.2 548.69L564.2 598.69L520.9 623.69L477.6 598.69L477.6 548.69zM564.2 -1.31L607.5 23.69L607.5 73.69L564.2 98.69L520.9 73.69L520.9 23.69zM564.2 148.69L607.5 173.69L607.5 223.69L564.2 248.69L520.9 223.69L520.9 173.69zM650.81 -1.31L694.11 23.69L694.11 73.69L650.81 98.69L607.5 73.69L607.5 23.69zM650.81 148.69L694.11 173.69L694.11 223.69L650.81 248.69L607.5 223.69L607.5 173.69zM650.81 298.69L694.11 323.69L694.11 373.69L650.81 398.69L607.5 373.69L607.5 323.69zM694.11 373.69L737.41 398.69L737.41 448.69L694.11 473.69L650.81 448.69L650.81 398.69zM650.81 448.69L694.11 473.69L694.11 523.69L650.81 548.69L607.5 523.69L607.5 473.69zM694.11 523.69L737.41 548.69L737.41 598.69L694.11 623.69L650.81 598.69L650.81 548.69zM737.41 148.69L780.71 173.69L780.71 223.69L737.41 248.69L694.11 223.69L694.11 173.69zM780.71 223.69L824.02 248.69L824.02 298.69L780.71 323.69L737.41 298.69L737.41 248.69zM780.71 373.69L824.02 398.69L824.02 448.69L780.71 473.69L737.41 448.69L737.41 398.69zM824.02 148.69L867.32 173.69L867.32 223.69L824.02 248.69L780.71 223.69L780.71 173.69zM867.32 373.69L910.62 398.69L910.62 448.69L867.32 473.69L824.02 448.69L824.02 398.69zM910.62 -1.31L953.92 23.69L953.92 73.69L910.62 98.69L867.32 73.69L867.32 23.69zM953.92 373.69L997.23 398.69L997.23 448.69L953.92 473.69L910.62 448.69L910.62 398.69zM953.92 523.69L997.23 548.69L997.23 598.69L953.92 623.69L910.62 598.69L910.62 548.69zM1040.53 73.69L1083.83 98.69L1083.83 148.69L1040.53 173.69L997.23 148.69L997.23 98.69zM1083.83 -1.31L1127.13 23.69L1127.13 73.69L1083.83 98.69L1040.53 73.69L1040.53 23.69zM1127.13 73.69L1170.43 98.69L1170.43 148.69L1127.13 173.69L1083.83 148.69L1083.83 98.69zM1083.83 148.69L1127.13 173.69L1127.13 223.69L1083.83 248.69L1040.53 223.69L1040.53 173.69zM1127.13 223.69L1170.43 248.69L1170.43 298.69L1127.13 323.69L1083.83 298.69L1083.83 248.69zM1083.83 448.69L1127.13 473.69L1127.13 523.69L1083.83 548.69L1040.53 523.69L1040.53 473.69zM1213.74 73.69L1257.04 98.69L1257.04 148.69L1213.74 173.69L1170.43 148.69L1170.43 98.69zM1170.43 298.69L1213.74 323.69L1213.74 373.69L1170.43 398.69L1127.13 373.69L1127.13 323.69zM1213.74 373.69L1257.04 398.69L1257.04 448.69L1213.74 473.69L1170.43 448.69L1170.43 398.69zM1213.74 523.69L1257.04 548.69L1257.04 598.69L1213.74 623.69L1170.43 598.69L1170.43 548.69zM1300.34 223.69L1343.64 248.69L1343.64 298.69L1300.34 323.69L1257.04 298.69L1257.04 248.69zM1300.34 523.69L1343.64 548.69L1343.64 598.69L1300.34 623.69L1257.04 598.69L1257.04 548.69zM1386.95 223.69L1430.25 248.69L1430.25 298.69L1386.95 323.69L1343.64 298.69L1343.64 248.69zM1386.95 373.69L1430.25 398.69L1430.25 448.69L1386.95 473.69L1343.64 448.69L1343.64 398.69zM1430.25 148.69L1473.55 173.69L1473.55 223.69L1430.25 248.69L1386.95 223.69L1386.95 173.69z" stroke="rgba(6, 80, 156, 0.93)" stroke-width="2"></path></g><defs><mask id="SvgjsMask1000"><rect width="1440" height="560" fill="#ffffff"></rect></mask></defs></svg>